<svg width="0" height="0" class="hidden">
  <symbol xmlns="http://www.w3.org/2000/svg" viewBox="0 0 496 496.015" id="verified">
    <path d="M455.883 128.004l-60.801-27.047-27.07-60.824-66.168 6.91-53.832-39.04-53.864 39.04-66.136-6.91-27.051 60.797-60.824 27.074 6.914 66.168-39.04 53.832 39.04 53.863-6.914 66.137 60.8 27.047 27.075 60.824 66.168-6.91 53.832 39.039 53.863-39.04 66.137 6.911 27.047-60.8 60.824-27.071-6.914-66.168 39.043-53.832-39.043-53.863zm-255.871 216l-67.922-67.922 22.64-22.559 45.282 45.2L335.77 162.965l22.64 22.637zm0 0" fill="#57a4ff"></path>
    <g fill="#1e81ce">
      <path d="M494.492 243.309l-37.25-51.387 6.602-63.11a8.004 8.004 0 00-4.707-8.144l-57.98-25.8-25.802-57.985a8.048 8.048 0 00-8.144-4.711L304.09 38.77 252.707 1.523a7.997 7.997 0 00-9.39 0L191.93 38.77l-63.118-6.598a8.108 8.108 0 00-8.144 4.703l-25.8 57.984-57.985 25.809a7.996 7.996 0 00-4.703 8.137l6.597 63.117-37.246 51.387a7.997 7.997 0 000 9.39l37.246 51.383-6.597 63.121a7.998 7.998 0 004.703 8.145l57.984 25.8 25.801 57.985a8.088 8.088 0 008.144 4.71l63.118-6.6 51.386 37.25a7.997 7.997 0 009.391 0l51.383-37.25 63.12 6.6a8.046 8.046 0 008.145-4.702l25.801-57.985 57.98-25.808a8.007 8.007 0 004.708-8.137l-6.602-63.121 37.25-51.383a7.997 7.997 0 000-9.398zm-52 53.863a7.98 7.98 0 00-1.48 5.527l6.304 60.383-55.48 24.7a7.936 7.936 0 00-4.066 4.054l-24.68 55.48-60.399-6.312a7.98 7.98 0 00-5.52 1.488l-49.16 35.633-49.167-35.633a7.913 7.913 0 00-4.688-1.527c-.281 0-.562 0-.8.039l-60.403 6.312-24.68-55.48a7.994 7.994 0 00-4.062-4.066l-55.512-24.688 6.305-60.383a8.02 8.02 0 00-1.48-5.527L17.89 248.004l35.632-49.168a8.02 8.02 0 001.48-5.527L48.7 132.922l55.48-24.695a7.93 7.93 0 004.063-4.055l24.68-55.48 60.402 6.312a8.072 8.072 0 005.52-1.488l49.168-35.633 49.168 35.633a8.04 8.04 0 005.52 1.488l60.398-6.313 24.68 55.48a7.994 7.994 0 004.066 4.063l55.48 24.688-6.304 60.387a7.98 7.98 0 001.48 5.527l35.629 49.168zm0 0"></path>
      <path d="M341.426 157.309a7.997 7.997 0 00-11.313 0L200.012 287.41l-39.625-39.55a8 8 0 00-11.297 0l-22.68 22.542c-1.504 1.5-2.351 3.54-2.351 5.664s.847 4.164 2.351 5.664l67.922 67.922c3.121 3.121 8.188 3.121 11.313 0L364.043 191.25c3.121-3.121 3.121-8.187 0-11.312zM200.012 332.69l-56.602-56.6 11.313-11.285 39.64 39.558c3.121 3.117 8.18 3.117 11.305 0l130.102-130.09 11.328 11.329zm0 0"></path>
    </g>
  </symbol>
  <symbol xmlns="http://www.w3.org/2000/svg" viewBox="0 0 320.001 320.001" id="play">
    <path d="M295.84 146.049l-256-144a16.026 16.026 0 00-15.904.128A15.986 15.986 0 0016 16.001v288a15.986 15.986 0 007.936 13.824A16.144 16.144 0 0032 320.001c2.688 0 5.408-.672 7.84-2.048l256-144c5.024-2.848 8.16-8.16 8.16-13.952s-3.136-11.104-8.16-13.952z"></path>
  </symbol>
  <symbol xmlns="http://www.w3.org/2000/svg" viewBox="0 0 512 512" id="user">
    <path d="M437.02 74.98C388.668 26.63 324.379 0 256 0 187.617 0 123.332 26.629 74.98 74.98 26.63 123.332 0 187.617 0 256c0 68.379 26.629 132.668 74.98 181.02C123.332 485.37 187.617 512 256 512c68.379 0 132.668-26.629 181.02-74.98C485.37 388.668 512 324.379 512 256c0-68.383-26.629-132.668-74.98-181.02zM128.34 442.387c10.707-61.649 64.129-107.121 127.66-107.121 63.535 0 116.953 45.472 127.66 107.12C347.312 467.36 303.336 482 256 482s-91.313-14.64-127.66-39.613zm46.262-218.52c0-44.887 36.515-81.398 81.398-81.398s81.398 36.515 81.398 81.398c0 44.883-36.515 81.399-81.398 81.399s-81.398-36.516-81.398-81.399zm235.043 197.711c-8.075-28.7-24.11-54.738-46.586-75.078a159.444 159.444 0 00-46.36-29.27c30.5-19.894 50.703-54.312 50.703-93.363 0-61.426-49.976-111.398-111.402-111.398S144.602 162.44 144.602 223.867c0 39.051 20.203 73.469 50.699 93.363a159.483 159.483 0 00-46.36 29.266c-22.472 20.34-38.511 46.379-46.586 75.078C57.883 380.274 30 321.336 30 256 30 131.383 131.383 30 256 30s226 101.383 226 226c0 65.34-27.883 124.277-72.355 165.578zm0 0"></path>
  </symbol>
  <symbol xmlns="http://www.w3.org/2000/svg" viewBox="0 0 511.929 511.929" id="tv">
    <path d="M347.677 457.508c-96.305 3.048-193.902 1.25-290.082-5.346-17.966-1.227-32.527-15.056-34.622-32.884a1167.603 1167.603 0 010-272.438c2.095-17.828 16.656-31.657 34.623-32.883 8.647-.591 16.673-1.106 24.536-1.576a7.5 7.5 0 007.04-7.934c-.248-4.135-3.79-7.292-7.934-7.039-7.906.472-15.973.99-24.664 1.584-25.164 1.717-45.561 21.104-48.498 46.097a1182.583 1182.583 0 000 275.941c2.938 24.993 23.334 44.38 48.496 46.097 9.183.63 18.382 1.206 27.588 1.749l.005.027 5.201 22.371a7.503 7.503 0 009.004 5.607 7.5 7.5 0 005.607-9.003l-4.216-18.135a2932.274 2932.274 0 00156.607 4.205c30.666 0 61.292-.482 91.785-1.448 4.14-.131 7.39-3.593 7.259-7.733s-3.616-7.42-7.735-7.259zm156.176-312.42c-2.938-24.993-23.334-44.38-48.496-46.097-52.437-3.593-105.201-5.748-157.982-6.497l56.154-65.248a7.5 7.5 0 00-11.369-9.785l-64.389 74.817a2933.354 2933.354 0 00-41.424-.022l-64.368-74.795a7.5 7.5 0 00-10.577-.792 7.499 7.499 0 00-.792 10.577l56.112 65.201c-35.255.47-70.446 1.571-105.48 3.316a7.5 7.5 0 00.746 14.981c113.528-5.656 228.708-4.576 342.346 3.212 17.966 1.226 32.526 15.055 34.623 32.883a1167.603 1167.603 0 010 272.438c-2.097 17.828-16.657 31.657-34.627 32.883a2896.304 2896.304 0 01-77.02 4.259 7.499 7.499 0 00-7.179 7.808 7.5 7.5 0 007.807 7.18 2933.936 2933.936 0 0034.226-1.65l-4.212 18.119a7.5 7.5 0 1014.611 3.396l5.2-22.371.005-.029c9.232-.546 18.445-1.118 27.586-1.747 25.164-1.717 45.561-21.104 48.498-46.097a1182.41 1182.41 0 00.001-275.94z"></path>
    <path d="M48.079 164.6a906.091 906.091 0 000 236.917c2.119 16.062 15.411 28.53 31.605 29.648 58.485 4.037 117.383 6.056 176.28 6.056s117.795-2.019 176.28-6.056c16.195-1.118 29.487-13.587 31.605-29.648a906.091 906.091 0 000-236.917c-2.118-16.062-15.41-28.531-31.605-29.648-116.971-8.074-235.59-8.074-352.561 0-16.194 1.118-29.486 13.587-31.604 29.648zm207.885-20.704c58.552 0 117.104 2.007 175.247 6.02 9.106.629 16.578 7.629 17.768 16.646a891.114 891.114 0 010 232.994c-1.189 9.016-8.661 16.017-17.768 16.645-116.286 8.027-234.209 8.027-350.494 0-9.106-.628-16.578-7.629-17.768-16.646a891.107 891.107 0 010-232.993c1.189-9.017 8.662-16.017 17.768-16.646a2547.354 2547.354 0 01175.247-6.02z"></path>
  </symbol>
  <symbol xmlns="http://www.w3.org/2000/svg" viewBox="0 0 512 512" id="reels">
    <path d="M497 0H15C6.716 0 0 6.716 0 15v482c0 8.284 6.716 15 15 15h482c8.284 0 15-6.716 15-15V15c0-8.284-6.716-15-15-15zm-15 80h-50.334V30H482zM160.667 432v50h-50.333v-50zm30 0H241v50h-50.333zM271 432h50.333v50H271zm80.333 0h50.333v50h-50.333zM30 402V110h452v292zM351.333 80V30h50.333v50zm-30 0H271V30h50.333zM241 80h-50.333V30H241zm-80.333 0h-50.333V30h50.333zM80.333 30v50H30V30zM30 432h50.333v50H30zm401.666 50v-50H482v50z"></path>
    <path d="M256 141c-63.411 0-115 51.589-115 115s51.589 115 115 115 115-51.589 115-115-51.589-115-115-115zm0 200c-46.869 0-85-38.131-85-85s38.131-85 85-85 85 38.131 85 85-38.131 85-85 85z"></path>
    <path d="M305 244l-60-45a15.002 15.002 0 00-24 12v90a15.001 15.001 0 0024 12l60-45a15.001 15.001 0 000-24zm-54 27v-30l20 15z"></path>
  </symbol>
  <symbol xmlns="http://www.w3.org/2000/svg" viewBox="0 0 512.004 512.004" id="book">
    <path d="M291.057 242.811a8.56 8.56 0 007.62 4.659 8.517 8.517 0 003.866-.93c.503-.256 50.731-25.771 75.503-33.596 4.489-1.425 6.98-6.221 5.555-10.709a8.528 8.528 0 00-10.709-5.572c-26.095 8.252-75.981 33.596-78.097 34.671-4.199 2.133-5.871 7.271-3.738 11.477zm7.62-97.74a8.517 8.517 0 003.866-.93c.503-.256 50.731-25.771 75.503-33.596 4.489-1.425 6.98-6.221 5.555-10.709a8.528 8.528 0 00-10.709-5.572c-26.095 8.252-75.981 33.596-78.097 34.671-4.198 2.133-5.871 7.27-3.738 11.477a8.562 8.562 0 007.62 4.659z"></path>
    <path d="M503.469 128.004a8.53 8.53 0 00-8.533 8.533v332.8c0 14.114-11.486 25.6-25.6 25.6h-204.8v-19.635c12.442-4.352 44.851-14.498 76.8-14.498 74.334 0 124.809 16.461 125.312 16.631a8.583 8.583 0 007.68-1.178 8.527 8.527 0 003.541-6.921V93.871a8.52 8.52 0 00-6.682-8.329s-6.69-1.493-18.125-3.593c-4.617-.853-9.079 2.219-9.933 6.844-.853 4.642 2.21 9.088 6.844 9.941a704.53 704.53 0 0110.829 2.074v357.188c-19.337-5.069-62.276-14.259-119.467-14.259-37.18 0-73.702 12.211-85.001 16.35-10.044-4.437-40.405-16.35-77.133-16.35-58.778 0-107.196 9.694-128 14.618v-357.88c17.041-4.19 67.371-15.138 128-15.138 31.113 0 57.796 9.685 68.267 14.063v335.804a8.534 8.534 0 0012.928 7.313c.845-.503 85.393-51.004 160.435-76.015a8.534 8.534 0 005.837-8.098V8.537a8.53 8.53 0 00-3.678-7.014 8.525 8.525 0 00-7.859-.981c-68.275 25.608-137.36 68.599-138.052 69.026-3.994 2.5-5.214 7.765-2.714 11.759 2.492 3.994 7.757 5.214 11.759 2.714.631-.401 60.732-37.794 123.477-63.027v331.281c-58.249 20.241-119.066 53.291-145.067 68.087V93.871a8.541 8.541 0 00-4.719-7.637c-1.468-.725-36.437-17.963-80.614-17.963-77.107 0-136.388 16.683-138.88 17.399a8.528 8.528 0 00-6.187 8.201v375.467a8.57 8.57 0 003.388 6.81 8.527 8.527 0 005.146 1.724c.785 0 1.57-.111 2.338-.333.589-.162 59.597-16.734 134.195-16.734 31.198 0 57.856 9.711 68.267 14.071v20.062h-204.8c-14.114 0-25.6-11.486-25.6-25.6v-332.8c0-4.71-3.823-8.533-8.533-8.533s-8.533 3.823-8.533 8.533v332.8c0 23.526 19.14 42.667 42.667 42.667h426.667c23.526 0 42.667-19.14 42.667-42.667v-332.8a8.532 8.532 0 00-8.534-8.534z"></path>
    <path d="M291.057 191.611a8.56 8.56 0 007.62 4.659 8.517 8.517 0 003.866-.93c.503-.256 50.731-25.771 75.503-33.596 4.489-1.425 6.98-6.221 5.555-10.709a8.528 8.528 0 00-10.709-5.572c-26.095 8.252-75.981 33.596-78.097 34.671-4.199 2.133-5.871 7.271-3.738 11.477zm0 102.4a8.56 8.56 0 007.62 4.659 8.517 8.517 0 003.866-.93c.503-.256 50.731-25.771 75.503-33.596 4.489-1.425 6.98-6.221 5.555-10.709a8.528 8.528 0 00-10.709-5.572c-26.095 8.252-75.981 33.596-78.097 34.671-4.199 2.133-5.871 7.271-3.738 11.477zm-84.309-135.645c-52.693-12.365-112.572 3.388-115.089 4.062a8.535 8.535 0 104.421 16.486c.572-.162 58.223-15.326 106.778-3.934 4.565 1.067 9.182-1.775 10.257-6.366 1.074-4.582-1.776-9.173-6.367-10.248zm0 51.2c-52.693-12.356-112.572 3.388-115.089 4.062a8.535 8.535 0 104.421 16.486c.572-.162 58.223-15.326 106.778-3.934 4.565 1.067 9.182-1.775 10.257-6.366 1.074-4.582-1.776-9.173-6.367-10.248zm84.309 135.645a8.56 8.56 0 007.62 4.659 8.517 8.517 0 003.866-.93c.503-.256 50.731-25.771 75.503-33.596 4.489-1.425 6.98-6.221 5.555-10.709a8.528 8.528 0 00-10.709-5.572c-26.095 8.252-75.981 33.596-78.097 34.671-4.199 2.133-5.871 7.271-3.738 11.477zm-84.309-84.445c-52.693-12.356-112.572 3.379-115.089 4.062a8.536 8.536 0 00-6.033 10.453 8.543 8.543 0 008.235 6.332c.734 0 1.476-.102 2.219-.299.572-.162 58.223-15.326 106.778-3.934 4.565 1.067 9.182-1.775 10.257-6.366 1.074-4.582-1.776-9.173-6.367-10.248zm0 102.4c-52.693-12.365-112.572 3.388-115.089 4.062a8.536 8.536 0 00-6.033 10.453 8.543 8.543 0 008.235 6.332c.734 0 1.476-.102 2.219-.299.572-.162 58.223-15.326 106.778-3.934 4.565 1.058 9.182-1.775 10.257-6.366 1.074-4.582-1.776-9.173-6.367-10.248zm0-51.2c-52.693-12.365-112.572 3.379-115.089 4.062a8.536 8.536 0 00-6.033 10.453 8.543 8.543 0 008.235 6.332c.734 0 1.476-.102 2.219-.299.572-.162 58.223-15.326 106.778-3.934 4.565 1.067 9.182-1.775 10.257-6.366 1.074-4.582-1.776-9.173-6.367-10.248z"></path>
  </symbol>
  <symbol xmlns="http://www.w3.org/2000/svg" viewBox="0 0 512.001 512.001" id="grid">
    <path d="M511.78 171.836V56.973C511.78 25.619 486.272.11 454.917.11H56.863C25.508.11 0 25.619 0 56.973v398.055c0 31.354 25.508 56.863 56.863 56.863h398.055c31.354 0 56.863-25.508 56.863-56.863V176.985a15.073 15.073 0 00-.001-5.149zM348.436 30.094h106.482c14.821 0 26.879 12.058 26.879 26.879v102.446H348.436V30.094zm-193.1 451.813H56.863c-14.822 0-26.879-12.058-26.879-26.879V352.519h125.352v129.388zm0-159.372H29.984V189.403h125.352v133.132zm.001-163.116H29.984V56.973c0-14.821 12.057-26.879 26.879-26.879h98.474v129.325zm163.115 322.488H185.319V352.519h133.133v129.388zm0-159.372H185.319V189.403h133.133v133.132zm0-163.116H185.319V30.094h133.133v129.325zm163.345 295.609c0 14.821-12.058 26.879-26.879 26.879H348.436V352.519h133.361v102.509zm0-132.493H348.436V189.403h133.361v133.132z"></path>
  </symbol>
</svg>